<?xml version="1.0" encoding="UTF-8" standalone="no"?>
<!-- Created with Inkscape (http://www.inkscape.org/) -->

<svg
   xmlns:dc="http://purl.org/dc/elements/1.1/"
   xmlns:cc="http://creativecommons.org/ns#"
   xmlns:rdf="http://www.w3.org/1999/02/22-rdf-syntax-ns#"
   xmlns:svg="http://www.w3.org/2000/svg"
   xmlns="http://www.w3.org/2000/svg"
   xmlns:sodipodi="http://sodipodi.sourceforge.net/DTD/sodipodi-0.dtd"
   xmlns:inkscape="http://www.inkscape.org/namespaces/inkscape"
   width="500mm"
   height="500mm"
   viewBox="0 0 450 450"
   version="1.1"
   id="svg8"
   inkscape:version="0.92.3 (2405546, 2018-03-11)"
   sodipodi:docname="logo.svg"
   inkscape:export-filename="G:\My Drive\Satoshiware\microcurrencies\arizona\Logo\AZ Colors.png"
   inkscape:export-xdpi="96"
   inkscape:export-ydpi="96">
  <defs
     id="defs2" />
  <sodipodi:namedview
     id="base"
     pagecolor="#ffffff"
     bordercolor="#666666"
     borderopacity="1.0"
     inkscape:pageopacity="0.0"
     inkscape:pageshadow="2"
     inkscape:zoom="0.25000001"
     inkscape:cx="1067.0975"
     inkscape:cy="767.02975"
     inkscape:document-units="mm"
     inkscape:current-layer="g2482"
     showgrid="true"
     inkscape:window-width="1920"
     inkscape:window-height="1009"
     inkscape:window-x="-8"
     inkscape:window-y="-8"
     inkscape:window-maximized="1"
     inkscape:pagecheckerboard="1"
     scale-x="0.9">
    <inkscape:grid
       type="xygrid"
       id="grid2283" />
  </sodipodi:namedview>
  <metadata
     id="metadata5">
    <rdf:RDF>
      <cc:Work
         rdf:about="">
        <dc:format>image/svg+xml</dc:format>
        <dc:type
           rdf:resource="http://purl.org/dc/dcmitype/StillImage" />
        <dc:title></dc:title>
      </cc:Work>
    </rdf:RDF>
  </metadata>
  <g
     inkscape:groupmode="layer"
     id="g2350"
     inkscape:label="Cactus Desert #ACA47AFF"
     style="display:none"
     sodipodi:insensitive="true"
     transform="translate(0,203)">
    <circle
       style="opacity:1;fill:#aca47a;fill-opacity:1;fill-rule:nonzero;stroke:none;stroke-width:0.0500619;stroke-miterlimit:4;stroke-dasharray:none;stroke-dashoffset:0;stroke-opacity:1"
       id="circle2348"
       cx="105"
       cy="112"
       r="86.5" />
  </g>
  <g
     style="display:none"
     inkscape:label="Cactus Desert #444C24FF"
     id="g2390"
     inkscape:groupmode="layer"
     sodipodi:insensitive="true"
     transform="translate(0,203)">
    <circle
       r="86.5"
       cy="112"
       cx="105"
       id="circle2388"
       style="opacity:1;fill:#444c24;fill-opacity:1;fill-rule:nonzero;stroke:none;stroke-width:0.0500619;stroke-miterlimit:4;stroke-dasharray:none;stroke-dashoffset:0;stroke-opacity:1" />
  </g>
  <g
     style="display:none"
     inkscape:label="Cactus Desert #843B23FF"
     id="g2386"
     inkscape:groupmode="layer"
     sodipodi:insensitive="true"
     transform="translate(0,203)">
    <circle
       r="86.5"
       cy="112"
       cx="105"
       id="circle2384"
       style="opacity:1;fill:#843b23;fill-opacity:1;fill-rule:nonzero;stroke:none;stroke-width:0.0500619;stroke-miterlimit:4;stroke-dasharray:none;stroke-dashoffset:0;stroke-opacity:1" />
  </g>
  <g
     style="display:none"
     inkscape:label="Cactus Desert #2A79D8FF"
     id="g2382"
     inkscape:groupmode="layer"
     sodipodi:insensitive="true"
     transform="translate(0,203)">
    <circle
       r="86.5"
       cy="112"
       cx="105"
       id="circle2380"
       style="opacity:1;fill:#2a79d8;fill-opacity:1;fill-rule:nonzero;stroke:none;stroke-width:0.0500619;stroke-miterlimit:4;stroke-dasharray:none;stroke-dashoffset:0;stroke-opacity:1" />
  </g>
  <g
     style="display:none"
     inkscape:label="Cactus Desert #C2D0E3FF"
     id="g2378"
     inkscape:groupmode="layer"
     sodipodi:insensitive="true"
     transform="translate(0,203)">
    <circle
       r="86.5"
       cy="112"
       cx="105"
       id="circle2376"
       style="opacity:1;fill:#c2d0e3;fill-opacity:1;fill-rule:nonzero;stroke:none;stroke-width:0.0500619;stroke-miterlimit:4;stroke-dasharray:none;stroke-dashoffset:0;stroke-opacity:1" />
  </g>
  <g
     style="display:none"
     inkscape:label="Cactus Zamesi #0E0A02FF"
     id="g2370"
     inkscape:groupmode="layer"
     sodipodi:insensitive="true"
     transform="translate(0,203)">
    <circle
       r="86.5"
       cy="112"
       cx="105"
       id="circle2368"
       style="opacity:1;fill:#0e0a02;fill-opacity:1;fill-rule:nonzero;stroke:none;stroke-width:0.0500619;stroke-miterlimit:4;stroke-dasharray:none;stroke-dashoffset:0;stroke-opacity:1" />
  </g>
  <g
     style="display:none"
     inkscape:label="Cactus Zamesi #543C0DFF"
     id="g2366"
     inkscape:groupmode="layer"
     sodipodi:insensitive="true"
     transform="translate(0,203)">
    <circle
       r="86.5"
       cy="112"
       cx="105"
       id="circle2364"
       style="opacity:1;fill:#543c0d;fill-opacity:1;fill-rule:nonzero;stroke:none;stroke-width:0.0500619;stroke-miterlimit:4;stroke-dasharray:none;stroke-dashoffset:0;stroke-opacity:1" />
  </g>
  <g
     style="display:none"
     inkscape:label="Cactus Zamesi #9B6F18FF"
     id="g2374"
     inkscape:groupmode="layer"
     sodipodi:insensitive="true"
     transform="translate(0,203)">
    <circle
       r="86.5"
       cy="112"
       cx="105"
       id="circle2372"
       style="opacity:1;fill:#9b6f18;fill-opacity:1;fill-rule:nonzero;stroke:none;stroke-width:0.0500619;stroke-miterlimit:4;stroke-dasharray:none;stroke-dashoffset:0;stroke-opacity:1" />
  </g>
  <g
     style="display:none"
     inkscape:label="Cactus Zamesi #DDA027FF"
     id="g2362"
     inkscape:groupmode="layer"
     sodipodi:insensitive="true"
     transform="translate(0,203)">
    <circle
       r="86.5"
       cy="112"
       cx="105"
       id="circle2360"
       style="opacity:1;fill:#dda027;fill-opacity:1;fill-rule:nonzero;stroke:none;stroke-width:0.0500619;stroke-miterlimit:4;stroke-dasharray:none;stroke-dashoffset:0;stroke-opacity:1" />
  </g>
  <g
     style="display:none"
     inkscape:label="Cactus Zamesi #E8BF6EFF"
     id="g2358"
     inkscape:groupmode="layer"
     sodipodi:insensitive="true"
     transform="translate(0,203)">
    <circle
       r="86.5"
       cy="112"
       cx="105"
       id="circle2356"
       style="opacity:1;fill:#e8bf6e;fill-opacity:1;fill-rule:nonzero;stroke:none;stroke-width:0.0500619;stroke-miterlimit:4;stroke-dasharray:none;stroke-dashoffset:0;stroke-opacity:1" />
  </g>
  <g
     style="display:none"
     inkscape:label="Cactus Zamesi #F3DEB4FF"
     id="g2354"
     inkscape:groupmode="layer"
     sodipodi:insensitive="true"
     transform="translate(0,203)">
    <circle
       r="86.5"
       cy="112"
       cx="105"
       id="circle2352"
       style="opacity:1;fill:#f3deb4;fill-opacity:1;fill-rule:nonzero;stroke:none;stroke-width:0.0500619;stroke-miterlimit:4;stroke-dasharray:none;stroke-dashoffset:0;stroke-opacity:1" />
  </g>
  <g
     style="display:none"
     inkscape:label="Cactus AZ Blue #002868FF"
     id="g2342"
     inkscape:groupmode="layer"
     sodipodi:insensitive="true"
     transform="translate(0,203)">
    <circle
       r="86.5"
       cy="112"
       cx="105"
       id="circle2340"
       style="opacity:1;fill:#002868;fill-opacity:1;fill-rule:nonzero;stroke:none;stroke-width:0.0500619;stroke-miterlimit:4;stroke-dasharray:none;stroke-dashoffset:0;stroke-opacity:1" />
  </g>
  <g
     inkscape:groupmode="layer"
     id="g2346"
     inkscape:label="Cactus AZ Copper #CE5C17FF"
     style="display:none"
     sodipodi:insensitive="true"
     transform="translate(0,203)">
    <circle
       style="opacity:1;fill:#ce5c17;fill-opacity:1;fill-rule:nonzero;stroke:none;stroke-width:0.0500619;stroke-miterlimit:4;stroke-dasharray:none;stroke-dashoffset:0;stroke-opacity:1"
       id="circle2344"
       cx="105"
       cy="112"
       r="86.5" />
  </g>
  <g
     style="display:inline"
     inkscape:label="Cactus AZ Yellow #FED700FF"
     id="g2338"
     inkscape:groupmode="layer"
     transform="translate(0,203)">
    <circle
       r="226.06723"
       cy="24.832954"
       cx="224.26906"
       id="circle2336"
       style="opacity:1;fill:#fed700;fill-opacity:1;fill-rule:nonzero;stroke:none;stroke-width:0.13083649;stroke-miterlimit:4;stroke-dasharray:none;stroke-dashoffset:0;stroke-opacity:1" />
  </g>
  <g
     style="display:none"
     inkscape:label="Cactus AZ Red #BF0A30FF"
     id="g2334"
     inkscape:groupmode="layer"
     sodipodi:insensitive="true"
     transform="translate(0,203)">
    <circle
       r="86.5"
       cy="112"
       cx="105"
       id="circle2332"
       style="opacity:1;fill:#bf0a30;fill-opacity:1;fill-rule:nonzero;stroke:none;stroke-width:0.0500619;stroke-miterlimit:4;stroke-dasharray:none;stroke-dashoffset:0;stroke-opacity:1" />
  </g>
  <g
     inkscape:groupmode="layer"
     id="layer5"
     inkscape:label="Cactus Storm Brown #A45B32FF"
     style="display:none"
     sodipodi:insensitive="true"
     transform="translate(0,203)">
    <circle
       style="opacity:1;fill:#a45b32;fill-opacity:1;fill-rule:nonzero;stroke:none;stroke-width:0.0500619;stroke-miterlimit:4;stroke-dasharray:none;stroke-dashoffset:0;stroke-opacity:1"
       id="path2291"
       cx="105"
       cy="112"
       r="86.5" />
  </g>
  <g
     style="display:none"
     inkscape:label="Cactus Storm Yellow #ECBC2DFF"
     id="g2325"
     inkscape:groupmode="layer"
     sodipodi:insensitive="true"
     transform="translate(0,203)">
    <circle
       r="86.5"
       cy="112"
       cx="105"
       id="circle2323"
       style="opacity:1;fill:#ecbc2d;fill-opacity:1;fill-rule:nonzero;stroke:none;stroke-width:0.0500619;stroke-miterlimit:4;stroke-dasharray:none;stroke-dashoffset:0;stroke-opacity:1" />
  </g>
  <g
     style="display:none"
     inkscape:label="Cactus Storm Tan #B88148FF"
     id="g2321"
     inkscape:groupmode="layer"
     sodipodi:insensitive="true"
     transform="translate(0,203)">
    <circle
       r="86.5"
       cy="112"
       cx="105"
       id="circle2319"
       style="opacity:1;fill:#b88148;fill-opacity:1;fill-rule:nonzero;stroke:none;stroke-width:0.0500619;stroke-miterlimit:4;stroke-dasharray:none;stroke-dashoffset:0;stroke-opacity:1" />
  </g>
  <g
     style="display:none"
     inkscape:label="Cactus Storm Blue #334E69FF"
     id="g2317"
     inkscape:groupmode="layer"
     sodipodi:insensitive="true"
     transform="translate(0,203)">
    <circle
       r="86.5"
       cy="112"
       cx="105"
       id="circle2315"
       style="opacity:1;fill:#334e69;fill-opacity:1;fill-rule:nonzero;stroke:none;stroke-width:0.0500619;stroke-miterlimit:4;stroke-dasharray:none;stroke-dashoffset:0;stroke-opacity:1" />
  </g>
  <g
     inkscape:groupmode="layer"
     id="layer6"
     inkscape:label="Left Desert #ACA47AFF"
     style="display:none"
     sodipodi:insensitive="true"
     transform="translate(0,203)">
    <path
       style="fill:#aca47a;fill-opacity:1;stroke:#000000;stroke-width:0.250146px;stroke-linecap:butt;stroke-linejoin:miter;stroke-opacity:0.0233645"
       d="M 90.006804,142.0027 V 26.992344 C 47.404055,32.409499 18.624393,69.45071 18.505688,112 c -0.117543,42.13262 28.898367,79.1738 71.501116,85.00766 V 165.00477 H 60.854167 c -5.291667,0 -11.066741,-5.5881 -11.066741,-10.87977 v -51.59375 c 0,-5.291667 4.452157,-10.533051 9.743824,-10.533051 H 63.5 c 5.291667,0 10.419053,5.241384 10.419053,10.533051 v 39.47145 z"
       id="path834"
       inkscape:connector-curvature="0"
       sodipodi:nodetypes="ccscccccccccc" />
  </g>
  <g
     style="display:none"
     inkscape:label="Left Desert #444C24FF"
     id="g2534"
     inkscape:groupmode="layer"
     sodipodi:insensitive="true"
     transform="translate(0,203)">
    <path
       sodipodi:nodetypes="ccscccccccccc"
       inkscape:connector-curvature="0"
       id="path2532"
       d="M 90.006804,142.0027 V 26.992344 C 47.404055,32.409499 18.624393,69.45071 18.505688,112 c -0.117543,42.13262 28.898367,79.1738 71.501116,85.00766 V 165.00477 H 60.854167 c -5.291667,0 -11.066741,-5.5881 -11.066741,-10.87977 v -51.59375 c 0,-5.291667 4.452157,-10.533051 9.743824,-10.533051 H 63.5 c 5.291667,0 10.419053,5.241384 10.419053,10.533051 v 39.47145 z"
       style="fill:#444c24;fill-opacity:1;stroke:#000000;stroke-width:0.250146px;stroke-linecap:butt;stroke-linejoin:miter;stroke-opacity:0.0233645" />
  </g>
  <g
     style="display:none"
     inkscape:label="Left Desert #843B23FF"
     id="g2530"
     inkscape:groupmode="layer"
     sodipodi:insensitive="true"
     transform="translate(0,203)">
    <path
       sodipodi:nodetypes="ccscccccccccc"
       inkscape:connector-curvature="0"
       id="path2528"
       d="M 90.006804,142.0027 V 26.992344 C 47.404055,32.409499 18.624393,69.45071 18.505688,112 c -0.117543,42.13262 28.898367,79.1738 71.501116,85.00766 V 165.00477 H 60.854167 c -5.291667,0 -11.066741,-5.5881 -11.066741,-10.87977 v -51.59375 c 0,-5.291667 4.452157,-10.533051 9.743824,-10.533051 H 63.5 c 5.291667,0 10.419053,5.241384 10.419053,10.533051 v 39.47145 z"
       style="fill:#843b23;fill-opacity:1;stroke:#000000;stroke-width:0.250146px;stroke-linecap:butt;stroke-linejoin:miter;stroke-opacity:0.0233645" />
  </g>
  <g
     style="display:none"
     inkscape:label="Left Desert #2A79D8FF"
     id="g2526"
     inkscape:groupmode="layer"
     sodipodi:insensitive="true"
     transform="translate(0,203)">
    <path
       sodipodi:nodetypes="ccscccccccccc"
       inkscape:connector-curvature="0"
       id="path2524"
       d="M 90.006804,142.0027 V 26.992344 C 47.404055,32.409499 18.624393,69.45071 18.505688,112 c -0.117543,42.13262 28.898367,79.1738 71.501116,85.00766 V 165.00477 H 60.854167 c -5.291667,0 -11.066741,-5.5881 -11.066741,-10.87977 v -51.59375 c 0,-5.291667 4.452157,-10.533051 9.743824,-10.533051 H 63.5 c 5.291667,0 10.419053,5.241384 10.419053,10.533051 v 39.47145 z"
       style="fill:#2a79d8;fill-opacity:1;stroke:#000000;stroke-width:0.250146px;stroke-linecap:butt;stroke-linejoin:miter;stroke-opacity:0.0233645" />
  </g>
  <g
     style="display:none"
     inkscape:label="Left Desert #C2D0E3FF"
     id="g2522"
     inkscape:groupmode="layer"
     sodipodi:insensitive="true"
     transform="translate(0,203)">
    <path
       sodipodi:nodetypes="ccscccccccccc"
       inkscape:connector-curvature="0"
       id="path2520"
       d="M 90.006804,142.0027 V 26.992344 C 47.404055,32.409499 18.624393,69.45071 18.505688,112 c -0.117543,42.13262 28.898367,79.1738 71.501116,85.00766 V 165.00477 H 60.854167 c -5.291667,0 -11.066741,-5.5881 -11.066741,-10.87977 v -51.59375 c 0,-5.291667 4.452157,-10.533051 9.743824,-10.533051 H 63.5 c 5.291667,0 10.419053,5.241384 10.419053,10.533051 v 39.47145 z"
       style="fill:#c2d0e3;fill-opacity:1;stroke:#000000;stroke-width:0.250146px;stroke-linecap:butt;stroke-linejoin:miter;stroke-opacity:0.0233645" />
  </g>
  <g
     style="display:none"
     inkscape:label="Left Zamesi #0E0A02FF"
     id="g2518"
     inkscape:groupmode="layer"
     sodipodi:insensitive="true"
     transform="translate(0,203)">
    <path
       sodipodi:nodetypes="ccscccccccccc"
       inkscape:connector-curvature="0"
       id="path2516"
       d="M 90.006804,142.0027 V 26.992344 C 47.404055,32.409499 18.624393,69.45071 18.505688,112 c -0.117543,42.13262 28.898367,79.1738 71.501116,85.00766 V 165.00477 H 60.854167 c -5.291667,0 -11.066741,-5.5881 -11.066741,-10.87977 v -51.59375 c 0,-5.291667 4.452157,-10.533051 9.743824,-10.533051 H 63.5 c 5.291667,0 10.419053,5.241384 10.419053,10.533051 v 39.47145 z"
       style="fill:#0e0a02;fill-opacity:1;stroke:#000000;stroke-width:0.250146px;stroke-linecap:butt;stroke-linejoin:miter;stroke-opacity:0.0233645" />
  </g>
  <g
     style="display:none"
     inkscape:label="Left Zamesi #543C0DFF"
     id="g2514"
     inkscape:groupmode="layer"
     sodipodi:insensitive="true"
     transform="translate(0,203)">
    <path
       sodipodi:nodetypes="ccscccccccccc"
       inkscape:connector-curvature="0"
       id="path2512"
       d="M 90.006804,142.0027 V 26.992344 C 47.404055,32.409499 18.624393,69.45071 18.505688,112 c -0.117543,42.13262 28.898367,79.1738 71.501116,85.00766 V 165.00477 H 60.854167 c -5.291667,0 -11.066741,-5.5881 -11.066741,-10.87977 v -51.59375 c 0,-5.291667 4.452157,-10.533051 9.743824,-10.533051 H 63.5 c 5.291667,0 10.419053,5.241384 10.419053,10.533051 v 39.47145 z"
       style="fill:#543c0d;fill-opacity:1;stroke:#000000;stroke-width:0.250146px;stroke-linecap:butt;stroke-linejoin:miter;stroke-opacity:0.0233645" />
  </g>
  <g
     style="display:none"
     inkscape:label="Left Zamesi #9B6F18FF"
     id="g2510"
     inkscape:groupmode="layer"
     sodipodi:insensitive="true"
     transform="translate(0,203)">
    <path
       sodipodi:nodetypes="ccscccccccccc"
       inkscape:connector-curvature="0"
       id="path2508"
       d="M 90.006804,142.0027 V 26.992344 C 47.404055,32.409499 18.624393,69.45071 18.505688,112 c -0.117543,42.13262 28.898367,79.1738 71.501116,85.00766 V 165.00477 H 60.854167 c -5.291667,0 -11.066741,-5.5881 -11.066741,-10.87977 v -51.59375 c 0,-5.291667 4.452157,-10.533051 9.743824,-10.533051 H 63.5 c 5.291667,0 10.419053,5.241384 10.419053,10.533051 v 39.47145 z"
       style="fill:#9b6f18;fill-opacity:1;stroke:#000000;stroke-width:0.250146px;stroke-linecap:butt;stroke-linejoin:miter;stroke-opacity:0.0233645" />
  </g>
  <g
     style="display:none"
     inkscape:label="Left Zamesi #DDA027FF"
     id="g2506"
     inkscape:groupmode="layer"
     sodipodi:insensitive="true"
     transform="translate(0,203)">
    <path
       sodipodi:nodetypes="ccscccccccccc"
       inkscape:connector-curvature="0"
       id="path2504"
       d="M 90.006804,142.0027 V 26.992344 C 47.404055,32.409499 18.624393,69.45071 18.505688,112 c -0.117543,42.13262 28.898367,79.1738 71.501116,85.00766 V 165.00477 H 60.854167 c -5.291667,0 -11.066741,-5.5881 -11.066741,-10.87977 v -51.59375 c 0,-5.291667 4.452157,-10.533051 9.743824,-10.533051 H 63.5 c 5.291667,0 10.419053,5.241384 10.419053,10.533051 v 39.47145 z"
       style="fill:#dda027;fill-opacity:1;stroke:#000000;stroke-width:0.250146px;stroke-linecap:butt;stroke-linejoin:miter;stroke-opacity:0.0233645" />
  </g>
  <g
     style="display:none"
     inkscape:label="Left Zamesi #E8BF6EFF"
     id="g2502"
     inkscape:groupmode="layer"
     sodipodi:insensitive="true"
     transform="translate(0,203)">
    <path
       sodipodi:nodetypes="ccscccccccccc"
       inkscape:connector-curvature="0"
       id="path2500"
       d="M 90.006804,142.0027 V 26.992344 C 47.404055,32.409499 18.624393,69.45071 18.505688,112 c -0.117543,42.13262 28.898367,79.1738 71.501116,85.00766 V 165.00477 H 60.854167 c -5.291667,0 -11.066741,-5.5881 -11.066741,-10.87977 v -51.59375 c 0,-5.291667 4.452157,-10.533051 9.743824,-10.533051 H 63.5 c 5.291667,0 10.419053,5.241384 10.419053,10.533051 v 39.47145 z"
       style="fill:#e8bf6e;fill-opacity:1;stroke:#000000;stroke-width:0.250146px;stroke-linecap:butt;stroke-linejoin:miter;stroke-opacity:0.0233645" />
  </g>
  <g
     style="display:none"
     inkscape:label="Left Zamesi #F3DEB4FF"
     id="g2498"
     inkscape:groupmode="layer"
     sodipodi:insensitive="true"
     transform="translate(0,203)">
    <path
       sodipodi:nodetypes="ccscccccccccc"
       inkscape:connector-curvature="0"
       id="path2496"
       d="M 90.006804,142.0027 V 26.992344 C 47.404055,32.409499 18.624393,69.45071 18.505688,112 c -0.117543,42.13262 28.898367,79.1738 71.501116,85.00766 V 165.00477 H 60.854167 c -5.291667,0 -11.066741,-5.5881 -11.066741,-10.87977 v -51.59375 c 0,-5.291667 4.452157,-10.533051 9.743824,-10.533051 H 63.5 c 5.291667,0 10.419053,5.241384 10.419053,10.533051 v 39.47145 z"
       style="fill:#f3deb4;fill-opacity:1;stroke:#000000;stroke-width:0.250146px;stroke-linecap:butt;stroke-linejoin:miter;stroke-opacity:0.0233645" />
  </g>
  <g
     style="display:none"
     inkscape:label="Left AZ Blue #002868FF"
     id="g2494"
     inkscape:groupmode="layer"
     sodipodi:insensitive="true"
     transform="translate(0,203)">
    <path
       sodipodi:nodetypes="ccscccccccccc"
       inkscape:connector-curvature="0"
       id="path2492"
       d="M 90.006804,142.0027 V 26.992344 C 47.404055,32.409499 18.624393,69.45071 18.505688,112 c -0.117543,42.13262 28.898367,79.1738 71.501116,85.00766 V 165.00477 H 60.854167 c -5.291667,0 -11.066741,-5.5881 -11.066741,-10.87977 v -51.59375 c 0,-5.291667 4.452157,-10.533051 9.743824,-10.533051 H 63.5 c 5.291667,0 10.419053,5.241384 10.419053,10.533051 v 39.47145 z"
       style="fill:#002868;fill-opacity:1;stroke:#000000;stroke-width:0.250146px;stroke-linecap:butt;stroke-linejoin:miter;stroke-opacity:0.0233645" />
  </g>
  <g
     style="display:none"
     inkscape:label="Left AZ Copper #CE5C17FF"
     id="g2490"
     inkscape:groupmode="layer"
     sodipodi:insensitive="true"
     transform="translate(0,203)">
    <path
       sodipodi:nodetypes="ccscccccccccc"
       inkscape:connector-curvature="0"
       id="path2488"
       d="M 90.006804,142.0027 V 26.992344 C 47.404055,32.409499 18.624393,69.45071 18.505688,112 c -0.117543,42.13262 28.898367,79.1738 71.501116,85.00766 V 165.00477 H 60.854167 c -5.291667,0 -11.066741,-5.5881 -11.066741,-10.87977 v -51.59375 c 0,-5.291667 4.452157,-10.533051 9.743824,-10.533051 H 63.5 c 5.291667,0 10.419053,5.241384 10.419053,10.533051 v 39.47145 z"
       style="fill:#ce5c17;fill-opacity:1;stroke:#000000;stroke-width:0.250146px;stroke-linecap:butt;stroke-linejoin:miter;stroke-opacity:0.0233645" />
  </g>
  <g
     style="display:none"
     inkscape:label="Left AZ Yellow #FED700FF"
     id="g2486"
     inkscape:groupmode="layer"
     sodipodi:insensitive="true"
     transform="translate(0,203)">
    <path
       sodipodi:nodetypes="ccscccccccccc"
       inkscape:connector-curvature="0"
       id="path2484"
       d="M 90.006804,142.0027 V 26.992344 C 47.404055,32.409499 18.624393,69.45071 18.505688,112 c -0.117543,42.13262 28.898367,79.1738 71.501116,85.00766 V 165.00477 H 60.854167 c -5.291667,0 -11.066741,-5.5881 -11.066741,-10.87977 v -51.59375 c 0,-5.291667 4.452157,-10.533051 9.743824,-10.533051 H 63.5 c 5.291667,0 10.419053,5.241384 10.419053,10.533051 v 39.47145 z"
       style="fill:#fed700;fill-opacity:1;stroke:#000000;stroke-width:0.250146px;stroke-linecap:butt;stroke-linejoin:miter;stroke-opacity:0.0233645" />
  </g>
  <g
     style="display:inline"
     inkscape:label="Left AZ Red #BF0A30FF"
     id="g2482"
     inkscape:groupmode="layer"
     transform="translate(0,203)">
    <path
       sodipodi:nodetypes="ccscccccccccc"
       inkscape:connector-curvature="0"
       id="path2480"
       d="M 185.08442,103.24484 V -197.33404 C 73.742393,-183.17634 -1.4730827,-86.369355 -1.7833179,24.832967 -2.0905153,134.94631 73.742393,231.75322 185.08442,246.99998 v -83.63937 h -76.19024 c -13.829739,0 -28.922861,-14.60447 -28.922861,-28.43422 V 0.08644242 c 0,-13.82974242 11.635686,-27.52806942 25.465421,-27.52806942 h 10.37231 c 13.82974,0 27.23013,13.698327 27.23013,27.52806942 V 103.24484 Z"
       style="fill:#bf0a30;fill-opacity:1;stroke:#000000;stroke-width:0.65375507px;stroke-linecap:butt;stroke-linejoin:miter;stroke-opacity:0.0233645" />
  </g>
  <g
     style="display:none"
     inkscape:label="Left Storm Brown #A45B32FF"
     id="g2478"
     inkscape:groupmode="layer"
     sodipodi:insensitive="true"
     transform="translate(0,203)">
    <path
       sodipodi:nodetypes="ccscccccccccc"
       inkscape:connector-curvature="0"
       id="path2476"
       d="M 90.006804,142.0027 V 26.992344 C 47.404055,32.409499 18.624393,69.45071 18.505688,112 c -0.117543,42.13262 28.898367,79.1738 71.501116,85.00766 V 165.00477 H 60.854167 c -5.291667,0 -11.066741,-5.5881 -11.066741,-10.87977 v -51.59375 c 0,-5.291667 4.452157,-10.533051 9.743824,-10.533051 H 63.5 c 5.291667,0 10.419053,5.241384 10.419053,10.533051 v 39.47145 z"
       style="fill:#a45b32;fill-opacity:1;stroke:#000000;stroke-width:0.250146px;stroke-linecap:butt;stroke-linejoin:miter;stroke-opacity:0.0233645" />
  </g>
  <g
     style="display:none"
     inkscape:label="Left Storm Yellow #ECBC2DFF"
     id="g2474"
     inkscape:groupmode="layer"
     sodipodi:insensitive="true"
     transform="translate(0,203)">
    <path
       sodipodi:nodetypes="ccscccccccccc"
       inkscape:connector-curvature="0"
       id="path2472"
       d="M 90.006804,142.0027 V 26.992344 C 47.404055,32.409499 18.624393,69.45071 18.505688,112 c -0.117543,42.13262 28.898367,79.1738 71.501116,85.00766 V 165.00477 H 60.854167 c -5.291667,0 -11.066741,-5.5881 -11.066741,-10.87977 v -51.59375 c 0,-5.291667 4.452157,-10.533051 9.743824,-10.533051 H 63.5 c 5.291667,0 10.419053,5.241384 10.419053,10.533051 v 39.47145 z"
       style="fill:#ecbc2d;fill-opacity:1;stroke:#000000;stroke-width:0.250146px;stroke-linecap:butt;stroke-linejoin:miter;stroke-opacity:0.0233645" />
  </g>
  <g
     style="display:none"
     inkscape:label="Left Storm Tan #B88148FF"
     id="g2470"
     inkscape:groupmode="layer"
     sodipodi:insensitive="true"
     transform="translate(0,203)">
    <path
       sodipodi:nodetypes="ccscccccccccc"
       inkscape:connector-curvature="0"
       id="path2468"
       d="M 90.006804,142.0027 V 26.992344 C 47.404055,32.409499 18.624393,69.45071 18.505688,112 c -0.117543,42.13262 28.898367,79.1738 71.501116,85.00766 V 165.00477 H 60.854167 c -5.291667,0 -11.066741,-5.5881 -11.066741,-10.87977 v -51.59375 c 0,-5.291667 4.452157,-10.533051 9.743824,-10.533051 H 63.5 c 5.291667,0 10.419053,5.241384 10.419053,10.533051 v 39.47145 z"
       style="fill:#b88148;fill-opacity:1;stroke:#000000;stroke-width:0.250146px;stroke-linecap:butt;stroke-linejoin:miter;stroke-opacity:0.0233645" />
  </g>
  <g
     style="display:none"
     inkscape:label="Left Storm Blue #334E69FF"
     id="g2466"
     inkscape:groupmode="layer"
     sodipodi:insensitive="true"
     transform="translate(0,203)">
    <path
       sodipodi:nodetypes="ccscccccccccc"
       inkscape:connector-curvature="0"
       id="path2464"
       d="M 90.006804,142.0027 V 26.992344 C 47.404055,32.409499 18.624393,69.45071 18.505688,112 c -0.117543,42.13262 28.898367,79.1738 71.501116,85.00766 V 165.00477 H 60.854167 c -5.291667,0 -11.066741,-5.5881 -11.066741,-10.87977 v -51.59375 c 0,-5.291667 4.452157,-10.533051 9.743824,-10.533051 H 63.5 c 5.291667,0 10.419053,5.241384 10.419053,10.533051 v 39.47145 z"
       style="fill:#334e69;fill-opacity:1;stroke:#000000;stroke-width:0.250146px;stroke-linecap:butt;stroke-linejoin:miter;stroke-opacity:0.0233645" />
  </g>
  <g
     inkscape:groupmode="layer"
     id="layer7"
     inkscape:label="Right Desert #ACA47AFF"
     style="display:none"
     sodipodi:insensitive="true"
     transform="translate(0,203)">
    <path
       style="fill:#aca47a;fill-opacity:1;stroke:#000000;stroke-width:0.25053301;stroke-linecap:butt;stroke-linejoin:miter;stroke-miterlimit:4;stroke-dasharray:none;stroke-opacity:0.0046729"
       d="M 119.99318,103.99928 H 136.0801 V 68.135417 c 0,-6.614584 5.47198,-11.140379 10.76365,-11.140379 h 2.64583 c 5.29167,0 10.72089,5.848712 10.72089,11.140379 v 47.625003 c -0.0838,5.29166 -5.42922,11.24093 -10.72089,11.24093 h -29.4964 v 70.00632 C 162.90094,191.17381 191.37093,154.12958 191.49059,112 191.60993,69.983915 162.90094,32.409488 119.99318,26.992332 Z"
       id="path836"
       inkscape:connector-curvature="0"
       sodipodi:nodetypes="ccccccccccscc" />
  </g>
  <g
     style="display:none"
     inkscape:label="Right Desert #444C24FF"
     id="g2462"
     inkscape:groupmode="layer"
     sodipodi:insensitive="true"
     transform="translate(0,203)">
    <path
       sodipodi:nodetypes="ccccccccccscc"
       inkscape:connector-curvature="0"
       id="path2460"
       d="M 119.99318,103.99928 H 136.0801 V 68.135417 c 0,-6.614584 5.47198,-11.140379 10.76365,-11.140379 h 2.64583 c 5.29167,0 10.72089,5.848712 10.72089,11.140379 v 47.625003 c -0.0838,5.29166 -5.42922,11.24093 -10.72089,11.24093 h -29.4964 v 70.00632 C 162.90094,191.17381 191.37093,154.12958 191.49059,112 191.60993,69.983915 162.90094,32.409488 119.99318,26.992332 Z"
       style="fill:#444c24;fill-opacity:1;stroke:#000000;stroke-width:0.25053301;stroke-linecap:butt;stroke-linejoin:miter;stroke-miterlimit:4;stroke-dasharray:none;stroke-opacity:0.0046729" />
  </g>
  <g
     style="display:none"
     inkscape:label="Right Desert #843B23FF"
     id="g2458"
     inkscape:groupmode="layer"
     sodipodi:insensitive="true"
     transform="translate(0,203)">
    <path
       sodipodi:nodetypes="ccccccccccscc"
       inkscape:connector-curvature="0"
       id="path2456"
       d="M 119.99318,103.99928 H 136.0801 V 68.135417 c 0,-6.614584 5.47198,-11.140379 10.76365,-11.140379 h 2.64583 c 5.29167,0 10.72089,5.848712 10.72089,11.140379 v 47.625003 c -0.0838,5.29166 -5.42922,11.24093 -10.72089,11.24093 h -29.4964 v 70.00632 C 162.90094,191.17381 191.37093,154.12958 191.49059,112 191.60993,69.983915 162.90094,32.409488 119.99318,26.992332 Z"
       style="fill:#843b23;fill-opacity:1;stroke:#000000;stroke-width:0.25053301;stroke-linecap:butt;stroke-linejoin:miter;stroke-miterlimit:4;stroke-dasharray:none;stroke-opacity:0.0046729" />
  </g>
  <g
     style="display:none"
     inkscape:label="Right Desert #2A79D8FF"
     id="g2454"
     inkscape:groupmode="layer"
     sodipodi:insensitive="true"
     transform="translate(0,203)">
    <path
       sodipodi:nodetypes="ccccccccccscc"
       inkscape:connector-curvature="0"
       id="path2452"
       d="M 119.99318,103.99928 H 136.0801 V 68.135417 c 0,-6.614584 5.47198,-11.140379 10.76365,-11.140379 h 2.64583 c 5.29167,0 10.72089,5.848712 10.72089,11.140379 v 47.625003 c -0.0838,5.29166 -5.42922,11.24093 -10.72089,11.24093 h -29.4964 v 70.00632 C 162.90094,191.17381 191.37093,154.12958 191.49059,112 191.60993,69.983915 162.90094,32.409488 119.99318,26.992332 Z"
       style="fill:#2a79d8;fill-opacity:1;stroke:#000000;stroke-width:0.25053301;stroke-linecap:butt;stroke-linejoin:miter;stroke-miterlimit:4;stroke-dasharray:none;stroke-opacity:0.0046729" />
  </g>
  <g
     style="display:none"
     inkscape:label="Right Desert #C2D0E3FF"
     id="g2450"
     inkscape:groupmode="layer"
     sodipodi:insensitive="true"
     transform="translate(0,203)">
    <path
       sodipodi:nodetypes="ccccccccccscc"
       inkscape:connector-curvature="0"
       id="path2448"
       d="M 119.99318,103.99928 H 136.0801 V 68.135417 c 0,-6.614584 5.47198,-11.140379 10.76365,-11.140379 h 2.64583 c 5.29167,0 10.72089,5.848712 10.72089,11.140379 v 47.625003 c -0.0838,5.29166 -5.42922,11.24093 -10.72089,11.24093 h -29.4964 v 70.00632 C 162.90094,191.17381 191.37093,154.12958 191.49059,112 191.60993,69.983915 162.90094,32.409488 119.99318,26.992332 Z"
       style="fill:#c2d0e3;fill-opacity:1;stroke:#000000;stroke-width:0.25053301;stroke-linecap:butt;stroke-linejoin:miter;stroke-miterlimit:4;stroke-dasharray:none;stroke-opacity:0.0046729" />
  </g>
  <g
     style="display:none"
     inkscape:label="Right Zamesi #0E0A02FF"
     id="g2446"
     inkscape:groupmode="layer"
     sodipodi:insensitive="true"
     transform="translate(0,203)">
    <path
       sodipodi:nodetypes="ccccccccccscc"
       inkscape:connector-curvature="0"
       id="path2444"
       d="M 119.99318,103.99928 H 136.0801 V 68.135417 c 0,-6.614584 5.47198,-11.140379 10.76365,-11.140379 h 2.64583 c 5.29167,0 10.72089,5.848712 10.72089,11.140379 v 47.625003 c -0.0838,5.29166 -5.42922,11.24093 -10.72089,11.24093 h -29.4964 v 70.00632 C 162.90094,191.17381 191.37093,154.12958 191.49059,112 191.60993,69.983915 162.90094,32.409488 119.99318,26.992332 Z"
       style="fill:#0e0a02;fill-opacity:1;stroke:#000000;stroke-width:0.25053301;stroke-linecap:butt;stroke-linejoin:miter;stroke-miterlimit:4;stroke-dasharray:none;stroke-opacity:0.0046729" />
  </g>
  <g
     style="display:none"
     inkscape:label="Right Zamesi #543C0DFF"
     id="g2442"
     inkscape:groupmode="layer"
     sodipodi:insensitive="true"
     transform="translate(0,203)">
    <path
       sodipodi:nodetypes="ccccccccccscc"
       inkscape:connector-curvature="0"
       id="path2440"
       d="M 119.99318,103.99928 H 136.0801 V 68.135417 c 0,-6.614584 5.47198,-11.140379 10.76365,-11.140379 h 2.64583 c 5.29167,0 10.72089,5.848712 10.72089,11.140379 v 47.625003 c -0.0838,5.29166 -5.42922,11.24093 -10.72089,11.24093 h -29.4964 v 70.00632 C 162.90094,191.17381 191.37093,154.12958 191.49059,112 191.60993,69.983915 162.90094,32.409488 119.99318,26.992332 Z"
       style="fill:#543c0d;fill-opacity:1;stroke:#000000;stroke-width:0.25053301;stroke-linecap:butt;stroke-linejoin:miter;stroke-miterlimit:4;stroke-dasharray:none;stroke-opacity:0.0046729" />
  </g>
  <g
     style="display:none"
     inkscape:label="Right Zamesi #9B6F18FF"
     id="g2438"
     inkscape:groupmode="layer"
     sodipodi:insensitive="true"
     transform="translate(0,203)">
    <path
       sodipodi:nodetypes="ccccccccccscc"
       inkscape:connector-curvature="0"
       id="path2436"
       d="M 119.99318,103.99928 H 136.0801 V 68.135417 c 0,-6.614584 5.47198,-11.140379 10.76365,-11.140379 h 2.64583 c 5.29167,0 10.72089,5.848712 10.72089,11.140379 v 47.625003 c -0.0838,5.29166 -5.42922,11.24093 -10.72089,11.24093 h -29.4964 v 70.00632 C 162.90094,191.17381 191.37093,154.12958 191.49059,112 191.60993,69.983915 162.90094,32.409488 119.99318,26.992332 Z"
       style="fill:#9b6f18;fill-opacity:1;stroke:#000000;stroke-width:0.25053301;stroke-linecap:butt;stroke-linejoin:miter;stroke-miterlimit:4;stroke-dasharray:none;stroke-opacity:0.0046729" />
  </g>
  <g
     style="display:none"
     inkscape:label="Right Zamesi #DDA027FF"
     id="g2434"
     inkscape:groupmode="layer"
     sodipodi:insensitive="true"
     transform="translate(0,203)">
    <path
       sodipodi:nodetypes="ccccccccccscc"
       inkscape:connector-curvature="0"
       id="path2432"
       d="M 119.99318,103.99928 H 136.0801 V 68.135417 c 0,-6.614584 5.47198,-11.140379 10.76365,-11.140379 h 2.64583 c 5.29167,0 10.72089,5.848712 10.72089,11.140379 v 47.625003 c -0.0838,5.29166 -5.42922,11.24093 -10.72089,11.24093 h -29.4964 v 70.00632 C 162.90094,191.17381 191.37093,154.12958 191.49059,112 191.60993,69.983915 162.90094,32.409488 119.99318,26.992332 Z"
       style="fill:#dda027;fill-opacity:1;stroke:#000000;stroke-width:0.25053301;stroke-linecap:butt;stroke-linejoin:miter;stroke-miterlimit:4;stroke-dasharray:none;stroke-opacity:0.0046729" />
  </g>
  <g
     style="display:none"
     inkscape:label="Right Zamesi #E8BF6EFF"
     id="g2430"
     inkscape:groupmode="layer"
     sodipodi:insensitive="true"
     transform="translate(0,203)">
    <path
       sodipodi:nodetypes="ccccccccccscc"
       inkscape:connector-curvature="0"
       id="path2428"
       d="M 119.99318,103.99928 H 136.0801 V 68.135417 c 0,-6.614584 5.47198,-11.140379 10.76365,-11.140379 h 2.64583 c 5.29167,0 10.72089,5.848712 10.72089,11.140379 v 47.625003 c -0.0838,5.29166 -5.42922,11.24093 -10.72089,11.24093 h -29.4964 v 70.00632 C 162.90094,191.17381 191.37093,154.12958 191.49059,112 191.60993,69.983915 162.90094,32.409488 119.99318,26.992332 Z"
       style="fill:#e8bf6e;fill-opacity:1;stroke:#000000;stroke-width:0.25053301;stroke-linecap:butt;stroke-linejoin:miter;stroke-miterlimit:4;stroke-dasharray:none;stroke-opacity:0.0046729" />
  </g>
  <g
     style="display:none"
     inkscape:label="Right Zamesi #F3DEB4FF"
     id="g2426"
     inkscape:groupmode="layer"
     sodipodi:insensitive="true"
     transform="translate(0,203)">
    <path
       sodipodi:nodetypes="ccccccccccscc"
       inkscape:connector-curvature="0"
       id="path2424"
       d="M 119.99318,103.99928 H 136.0801 V 68.135417 c 0,-6.614584 5.47198,-11.140379 10.76365,-11.140379 h 2.64583 c 5.29167,0 10.72089,5.848712 10.72089,11.140379 v 47.625003 c -0.0838,5.29166 -5.42922,11.24093 -10.72089,11.24093 h -29.4964 v 70.00632 C 162.90094,191.17381 191.37093,154.12958 191.49059,112 191.60993,69.983915 162.90094,32.409488 119.99318,26.992332 Z"
       style="fill:#f3deb4;fill-opacity:1;stroke:#000000;stroke-width:0.25053301;stroke-linecap:butt;stroke-linejoin:miter;stroke-miterlimit:4;stroke-dasharray:none;stroke-opacity:0.0046729" />
  </g>
  <g
     style="display:inline"
     inkscape:label="Right AZ Blue #002868FF"
     id="g2422"
     inkscape:groupmode="layer"
     transform="translate(0,203)">
    <path
       sodipodi:nodetypes="ccccccccccscc"
       inkscape:connector-curvature="0"
       id="path2420"
       d="m 263.45365,3.9231247 h 42.04306 V -89.806866 c 0,-17.287184 14.30099,-29.115314 28.13074,-29.115314 h 6.91486 c 13.82975,0 28.01898,15.28557 28.01898,29.115314 v 124.46766 c -0.21901,13.82973 -14.18923,29.378105 -28.01898,29.378105 H 263.45365 V 247 C 375.59282,231.75324 449.99897,134.93837 450.3117,24.832967 450.62359,-84.975828 375.59282,-183.17637 263.45365,-197.33407 Z"
       style="fill:#002868;fill-opacity:1;stroke:#000000;stroke-width:0.65476656;stroke-linecap:butt;stroke-linejoin:miter;stroke-miterlimit:4;stroke-dasharray:none;stroke-opacity:0.0046729" />
  </g>
  <g
     style="display:none"
     inkscape:label="Right AZ Copper #CE5C17FF"
     id="g2418"
     inkscape:groupmode="layer"
     sodipodi:insensitive="true"
     transform="translate(0,203)">
    <path
       sodipodi:nodetypes="ccccccccccscc"
       inkscape:connector-curvature="0"
       id="path2416"
       d="M 119.99318,103.99928 H 136.0801 V 68.135417 c 0,-6.614584 5.47198,-11.140379 10.76365,-11.140379 h 2.64583 c 5.29167,0 10.72089,5.848712 10.72089,11.140379 v 47.625003 c -0.0838,5.29166 -5.42922,11.24093 -10.72089,11.24093 h -29.4964 v 70.00632 C 162.90094,191.17381 191.37093,154.12958 191.49059,112 191.60993,69.983915 162.90094,32.409488 119.99318,26.992332 Z"
       style="fill:#ce5c17;fill-opacity:1;stroke:#000000;stroke-width:0.25053301;stroke-linecap:butt;stroke-linejoin:miter;stroke-miterlimit:4;stroke-dasharray:none;stroke-opacity:0.0046729" />
  </g>
  <g
     style="display:none"
     inkscape:label="Right AZ Yellow #FED700FF"
     id="g2414"
     inkscape:groupmode="layer"
     sodipodi:insensitive="true"
     transform="translate(0,203)">
    <path
       sodipodi:nodetypes="ccccccccccscc"
       inkscape:connector-curvature="0"
       id="path2412"
       d="M 119.99318,103.99928 H 136.0801 V 68.135417 c 0,-6.614584 5.47198,-11.140379 10.76365,-11.140379 h 2.64583 c 5.29167,0 10.72089,5.848712 10.72089,11.140379 v 47.625003 c -0.0838,5.29166 -5.42922,11.24093 -10.72089,11.24093 h -29.4964 v 70.00632 C 162.90094,191.17381 191.37093,154.12958 191.49059,112 191.60993,69.983915 162.90094,32.409488 119.99318,26.992332 Z"
       style="fill:#fed700;fill-opacity:1;stroke:#000000;stroke-width:0.25053301;stroke-linecap:butt;stroke-linejoin:miter;stroke-miterlimit:4;stroke-dasharray:none;stroke-opacity:0.0046729" />
  </g>
  <g
     style="display:none"
     inkscape:label="Right AZ Red #BF0A30FF"
     id="g2410"
     inkscape:groupmode="layer"
     sodipodi:insensitive="true"
     transform="translate(0,203)">
    <path
       sodipodi:nodetypes="ccccccccccscc"
       inkscape:connector-curvature="0"
       id="path2408"
       d="M 119.99318,103.99928 H 136.0801 V 68.135417 c 0,-6.614584 5.47198,-11.140379 10.76365,-11.140379 h 2.64583 c 5.29167,0 10.72089,5.848712 10.72089,11.140379 v 47.625003 c -0.0838,5.29166 -5.42922,11.24093 -10.72089,11.24093 h -29.4964 v 70.00632 C 162.90094,191.17381 191.37093,154.12958 191.49059,112 191.60993,69.983915 162.90094,32.409488 119.99318,26.992332 Z"
       style="fill:#bf0a30;fill-opacity:1;stroke:#000000;stroke-width:0.25053301;stroke-linecap:butt;stroke-linejoin:miter;stroke-miterlimit:4;stroke-dasharray:none;stroke-opacity:0.0046729" />
  </g>
  <g
     style="display:none"
     inkscape:label="Right Storm Brown #A45B32FF"
     id="g2406"
     inkscape:groupmode="layer"
     sodipodi:insensitive="true"
     transform="translate(0,203)">
    <path
       sodipodi:nodetypes="ccccccccccscc"
       inkscape:connector-curvature="0"
       id="path2404"
       d="M 119.99318,103.99928 H 136.0801 V 68.135417 c 0,-6.614584 5.47198,-11.140379 10.76365,-11.140379 h 2.64583 c 5.29167,0 10.72089,5.848712 10.72089,11.140379 v 47.625003 c -0.0838,5.29166 -5.42922,11.24093 -10.72089,11.24093 h -29.4964 v 70.00632 C 162.90094,191.17381 191.37093,154.12958 191.49059,112 191.60993,69.983915 162.90094,32.409488 119.99318,26.992332 Z"
       style="fill:#a45b32;fill-opacity:1;stroke:#000000;stroke-width:0.25053301;stroke-linecap:butt;stroke-linejoin:miter;stroke-miterlimit:4;stroke-dasharray:none;stroke-opacity:0.0046729" />
  </g>
  <g
     style="display:none"
     inkscape:label="Right Storm Yellow #ECBC2DFF"
     id="g2402"
     inkscape:groupmode="layer"
     sodipodi:insensitive="true"
     transform="translate(0,203)">
    <path
       sodipodi:nodetypes="ccccccccccscc"
       inkscape:connector-curvature="0"
       id="path2400"
       d="M 119.99318,103.99928 H 136.0801 V 68.135417 c 0,-6.614584 5.47198,-11.140379 10.76365,-11.140379 h 2.64583 c 5.29167,0 10.72089,5.848712 10.72089,11.140379 v 47.625003 c -0.0838,5.29166 -5.42922,11.24093 -10.72089,11.24093 h -29.4964 v 70.00632 C 162.90094,191.17381 191.37093,154.12958 191.49059,112 191.60993,69.983915 162.90094,32.409488 119.99318,26.992332 Z"
       style="fill:#ecbc2d;fill-opacity:1;stroke:#000000;stroke-width:0.25053301;stroke-linecap:butt;stroke-linejoin:miter;stroke-miterlimit:4;stroke-dasharray:none;stroke-opacity:0.0046729" />
  </g>
  <g
     style="display:none"
     inkscape:label="Right Storm Tan #B88148FF"
     id="g2398"
     inkscape:groupmode="layer"
     sodipodi:insensitive="true"
     transform="translate(0,203)">
    <path
       sodipodi:nodetypes="ccccccccccscc"
       inkscape:connector-curvature="0"
       id="path2396"
       d="M 119.99318,103.99928 H 136.0801 V 68.135417 c 0,-6.614584 5.47198,-11.140379 10.76365,-11.140379 h 2.64583 c 5.29167,0 10.72089,5.848712 10.72089,11.140379 v 47.625003 c -0.0838,5.29166 -5.42922,11.24093 -10.72089,11.24093 h -29.4964 v 70.00632 C 162.90094,191.17381 191.37093,154.12958 191.49059,112 191.60993,69.983915 162.90094,32.409488 119.99318,26.992332 Z"
       style="fill:#b88148;fill-opacity:1;stroke:#000000;stroke-width:0.25053337;stroke-linecap:butt;stroke-linejoin:miter;stroke-miterlimit:4;stroke-dasharray:none;stroke-opacity:0.0046729" />
  </g>
  <g
     style="display:none"
     inkscape:label="Right Storm Blue #334E69FF"
     id="g2394"
     inkscape:groupmode="layer"
     sodipodi:insensitive="true"
     transform="translate(0,203)">
    <path
       sodipodi:nodetypes="ccccccccccscc"
       inkscape:connector-curvature="0"
       id="path2392"
       d="M 119.99318,103.99928 H 136.0801 V 68.135417 c 0,-6.614584 5.47198,-11.140379 10.76365,-11.140379 h 2.64583 c 5.29167,0 10.72089,5.848712 10.72089,11.140379 v 47.625003 c -0.0838,5.29166 -5.42922,11.24093 -10.72089,11.24093 h -29.4964 v 70.00632 C 162.90094,191.17381 191.37093,154.12958 191.49059,112 191.60993,69.983915 162.90094,32.409488 119.99318,26.992332 Z"
       style="fill:#334e69;fill-opacity:1;stroke:#000000;stroke-width:0.25053301;stroke-linecap:butt;stroke-linejoin:miter;stroke-miterlimit:4;stroke-dasharray:none;stroke-opacity:0.0046729" />
  </g>
</svg>
